<svg xmlns="http://www.w3.org/2000/svg" xmlns:xlink="http://www.w3.org/1999/xlink" fill="none" version="1.1" width="30" height="30.000001907348633" viewBox="0 0 30 30.000001907348633"><defs><clipPath id="master_svg0_5893_147965"><rect x="0" y="0" width="30" height="30.000001907348633" rx="0"/></clipPath></defs><g clip-path="url(#master_svg0_5893_147965)"><g><path d="M15,27.9C22.1244,27.9,27.9,22.1244,27.9,15C27.9,7.8756,22.1244,2.1,15,2.1C7.8756,2.1,2.1,7.8756,2.1,15C2.1,22.1244,7.8756,27.9,15,27.9ZM15,29.25C7.12995,29.25,0.75,22.8701,0.75,15C0.75,7.12995,7.12995,0.75,15,0.75C22.8701,0.75,29.25,7.12995,29.25,15C29.25,22.8701,22.8701,29.25,15,29.25ZM16.029600000000002,15L21.4389,20.4093C21.7022,20.673,21.702,21.1001,21.4385,21.3635C21.1751,21.627,20.748,21.6272,20.4843,21.3639L15.075,15.9546L9.6657,21.3639C9.4021,21.6275,8.97471,21.6275,8.7111,21.3639C8.4475,21.1003,8.4475,20.6729,8.7111,20.4093L14.1204,15L8.7111,9.5907C8.4475,9.3271,8.4475,8.89971,8.7111,8.636099999999999C8.97471,8.372499999999999,9.4021,8.372499999999999,9.6657,8.636099999999999L15.075,14.0454L20.4843,8.636099999999999C20.7478,8.372150000000001,21.1755,8.37198,21.4393,8.635729999999999C21.703,8.89948,21.7029,9.32715,21.4389,9.5907L16.029600000000002,15Z" fill="#FFFFFF" fill-opacity="1" style="mix-blend-mode:passthrough"/></g></g></svg>